# xmcd CD database file
#
# Track frame offsets:
#	150
#	3150
#	18300
#	39600
#	56325
#	72075
#	76425
#	99825
#	120750
#	146625
#	165375
#	185925
#	207300
#	223050
#	239100
#
# Disc length: 3236 seconds
#
# Revision: 1
# Processed by: cddbd v1.5.1PL2 Copyright (c) Steve Scherf et al.
# Submitted via: freeDBTagger 0.8.2.1
#
DISCID=c90ca20f
DTITLE=MAX - Jewel Of Jewels
DYEAR=2006
DGENRE=misc
TTITLE0=The Biginning Of Jewel Of Jewels
TTITLE1=It’s Time To Shine
TTITLE2=What’S Going On
TTITLE3=Love Screw
TTITLE4=Festa
TTITLE5=Aqua
TTITLE6=Mirage
TTITLE7=Nirai Kanai (Kariyushi Remix)
TTITLE8=Kira Kirari
TTITLE9=Be With You
TTITLE10=Eternal White
TTITLE11=あなたを思うほど
TTITLE12=Naughty Boy
TTITLE13=Melty Love
TTITLE14=The Closing Of Jewel Of Jewels
EXTD=
EXTT0=
EXTT1=
EXTT2=
EXTT3=
EXTT4=
EXTT5=
EXTT6=
EXTT7=
EXTT8=
EXTT9=
EXTT10=
EXTT11=
EXTT12=
EXTT13=
EXTT14=
PLAYORDER=
